<svg xmlns="http://www.w3.org/2000/svg" xmlns:xlink="http://www.w3.org/1999/xlink" width="751" height="505.121" viewBox="0 0 751 505.121"><defs><pattern id="a" patternUnits="userSpaceOnUse" width="200" height="200"><image xlink:href="http://pointless-corp.staging.vigetx.com/assets/images/patterns/bg-paper.png" width="200" height="200"/></pattern></defs><g><path fill="#353133" d="M717.593 0c18.374 0 33.407 15.033 33.407 33.407v438.305c0 18.374-15.033 33.409-33.407 33.409h-684.186c-18.374 0-33.407-15.035-33.407-33.409v-438.305c0-18.374 15.033-33.407 33.407-33.407h684.186z"/><path d="M746.992 471.712c0 16.211-13.189 29.398-29.399 29.398h-684.186c-16.21 0-29.398-13.188-29.398-29.398v-438.305c0-16.21 13.188-29.398 29.398-29.398h684.186c16.21 0 29.399 13.188 29.399 29.398v438.305zM743.65 471.712c0 14.736-11.99 26.728-26.726 26.728h-684.185c-14.737 0-26.726-11.991-26.726-26.728v-438.305c0-14.737 11.989-26.726 26.726-26.726h684.186c14.736 0 26.726 11.988 26.726 26.726v438.305z"/><path fill="#1D1D1F" d="M677.504 477.057c0 1.471-1.204 2.674-2.673 2.674h-599.998c-1.469 0-2.672-1.203-2.672-2.674v-448.995c0-1.471 1.203-2.673 2.672-2.673h599.999c1.469 0 2.673 1.202 2.673 2.673v448.995z"/><circle fill="#191717" cx="714.917" cy="252.561" r="20.045"/><path fill="#838486" d="M708.237 248.552c0-1.47 1.204-2.674 2.673-2.674h8.018c1.469 0 2.672 1.204 2.672 2.674v8.018c0 1.47-1.203 2.673-2.672 2.673h-8.018c-1.469 0-2.673-1.203-2.673-2.673v-8.018m-1.336 0v8.018c0 2.211 1.798 4.008 4.009 4.008h8.018c2.21 0 4.008-1.797 4.008-4.008v-8.018c0-2.211-1.798-4.011-4.008-4.011h-8.018c-2.21 0-4.009 1.8-4.009 4.011z"/><circle fill="#231F20" cx="38.753" cy="252.561" r="5.346"/><path fill="#0F1F48" d="M41.425 252.56c0 1.475-1.199 2.673-2.672 2.673s-2.673-1.198-2.673-2.673 1.2-2.672 2.673-2.672 2.672 1.197 2.672 2.672z"/></g><g><path fill="#D36267" d="M74.833 28.062h599.999v448.994h-599.999z"/><path fill="url(#a)" d="M74.833 28.062h599.999v448.994h-599.999z"/><circle fill="#E2676C" cx="375.5" cy="252.56" r="80.178"/><linearGradient id="b" gradientUnits="userSpaceOnUse" x1="657.688" y1="692.12" x2="657.688" y2="692.12" gradientTransform="matrix(-66.558 66.838 66.838 66.558 -2161.93 -89807.258)"><stop offset="0" stop-color="#97A7B6"/><stop offset=".005" stop-color="#97A7B6"/><stop offset=".071" stop-color="#909BA5"/><stop offset=".176" stop-color="#9CB0C3"/><stop offset=".308" stop-color="#E3EBF1"/><stop offset=".357" stop-color="#E4EBF1"/><stop offset=".434" stop-color="#C9D8E6"/><stop offset=".5" stop-color="#ADC3D8"/><stop offset=".61" stop-color="#95A6BB"/><stop offset=".824" stop-color="#858585"/><stop offset=".989" stop-color="#A8B2BC"/><stop offset="1" stop-color="#A8B2BC"/></linearGradient><path fill="url(#b)" d="M323.494 217.646z"/><path fill="#fff" d="M323.395 217.415zm.005.022v-.004.004zm.002.024v-.012.012zm.01.017l-.007-.005.005.005h.002zm.002.017l-.002-.012.002.012zm.08.147l-.08-.141.08.141zM401.551 228.277l.173.159-12.284 12.284-8.121 8.122-5.343-5.315 8.486-7.866c-1.255-2.688-1.902-5.589-1.902-8.5 0-5.177 1.996-10.347 5.968-14.282 3.788-3.766 9.128-5.584 14.409-5.584 2.521 0 5.021.416 7.32 1.221l-11.086 10.961c-.758.753-1.113 1.783-1.113 2.801 0 .704.177 1.422.566 2.038l.433.679c.737 1.152 1.502 2.271 2.494 3.282zm-66.718 53.518c-1.855 1.845-2.783 4.252-2.787 6.678.004 2.387.9 4.766 2.717 6.602l.168.154 3.031-3.029c-.983-.93-1.603-2.235-1.603-3.691 0-2.811 2.279-5.093 5.091-5.093 1.458 0 2.762.622 3.689 1.605l1.184-1.186c-.098-.275-.161-.572-.161-.882 0-1.471 1.193-2.665 2.663-2.665.312 0 .606.063.884.161l25.82-25.82-5.458-5.484-35.238 32.65z"/><path fill="#D4E9F4" d="M370.071 249.145l-5.019 4.65 2.133 2.525v-.312l.971 1.003.039-.077c.795.813 1.645 1.657 2.519 2.511l4.815-4.816-5.458-5.484z"/><g fill="#D4E9F4"><path d="M384.462 235.66l-1.543 1.432c1.033 2.051 2.377 3.957 4.037 5.636l.249.229 1.418-1.419-.24-.219c-1.678-1.696-2.969-3.618-3.921-5.659zM421.404 219.791l-11.087 10.974c-.754.733-1.769 1.073-2.762 1.073-.725 0-1.456-.18-2.086-.594l-.668-.434c-1.084-.708-2.125-1.452-3.077-2.374l-12.284 12.284-.818.817-7.303 7.305 5.468 5.442 8.114-8.583c2.478 1.04 5.119 1.577 7.768 1.579 5.111-.004 10.213-1.936 14.139-5.81 3.862-3.811 5.737-9.229 5.734-14.592.003-2.433-.384-4.853-1.138-7.087zM349.71 280.449c1.034.366 1.78 1.345 1.78 2.504 0 1.474-1.193 2.665-2.664 2.665-1.16 0-2.137-.748-2.502-1.783l-1.184 1.186c.861.912 1.396 2.136 1.396 3.487 0 2.81-2.276 5.091-5.085 5.091-1.354 0-2.578-.536-3.489-1.399l-3.031 3.029c1.819 1.75 4.155 2.63 6.506 2.63 2.393 0 4.772-.901 6.593-2.699l33.046-34.953-5.547-5.577-25.819 25.819z"/></g><path fill="#784749" d="M421.713 292.862s-25.925-32.695-41.815-48.374c-.132-.128-11.776-2.857-13.423-3.242l-.197-.045-.355.355s3.208 13.467 3.343 13.607c15.577 16.066 48.604 41.56 48.604 41.56h.002c1.535 1.369 3.504 1.683 4.529.692l.008-.011.012-.013c.109-.117.204-.242.282-.38l-.008.003c.627-1.08.243-2.786-.982-4.152z"/><path fill="#5D3C21" d="M350.842 232.688c.46-.032.724-.071.724-.071l2.856-2.868 2.857-2.868s.035-.26.065-.721c-3.581.723-6.282 3.343-6.502 6.528z"/><path fill="#784749" d="M352.596 212.879c-5.16-4.863-14.308-2.583-18.929-4.374-.18-.069-.353-.142-.516-.223l-.009-.002c-.464-.212-.497-.198-.274.275l.047.117c2.13 4.461-.404 14.024 4.627 19.319.242.255.491.492.744.721l.175.156c.248.216.498.427.753.62l.109.08c.231.172.464.332.698.488l.186.12c.255.163.515.316.776.46l.18.098c.223.117.446.229.669.334l.185.088c.257.116.514.226.771.327l.227.084c.219.084.437.16.653.23l.162.055c.25.08.5.15.747.217l.244.065.666.157.179.037.624.115.232.038.658.093.172.02.521.053.19.016.59.037.143.006.486.014.099.003.524-.001.069-.002c.985-.018 1.59-.104 1.59-.104l2.856-2.868 2.857-2.868c.001 0 1.204-8.452-4.681-14.001z"/><path fill="#4B2A36" d="M380.062 244.691l-.034-.035c-.018-.082-.055-.141-.102-.191v-.006c-.45-.487-.994-1.03-1.601-1.608l-.003-.002c-.312-.297-.643-.604-.988-.917l-.208-.188c-.482-.436-.991-.885-1.525-1.344h.003l-.093-.08-.085-.07h.003l-.117-.102c-7.016-6.013-17.57-13.672-17.57-13.672-.375-.302-1.669.017-4.036 2.393-2.218 2.228-2.699 3.661-2.395 4.033 0 0 6.979 9.683 12.795 16.662v.002l.182.219.175.207.537.633.034.041.006.006.144.172v-.004c.46.538.908 1.052 1.341 1.536v.002l.152.168v.002l.055.059c.277.311.55.604.812.886l.087.094v-.002c.567.604 1.103 1.139 1.582 1.582l-.004-.025.021.051c.059.059.124.111.214.137l.027.026.003-.015c.462.093 1.598-.543 5.829-4.789 4.081-4.101 4.803-5.352 4.734-5.855l.025-.006z"/><linearGradient id="c" gradientUnits="userSpaceOnUse" x1="656.298" y1="692.058" x2="656.298" y2="692.058" gradientTransform="matrix(-66.558 66.838 66.838 66.558 -2222.375 -89695.008)"><stop offset="0" stop-color="#97A7B6"/><stop offset=".005" stop-color="#97A7B6"/><stop offset=".071" stop-color="#909BA5"/><stop offset=".176" stop-color="#9CB0C3"/><stop offset=".308" stop-color="#E3EBF1"/><stop offset=".357" stop-color="#E4EBF1"/><stop offset=".434" stop-color="#C9D8E6"/><stop offset=".5" stop-color="#ADC3D8"/><stop offset=".61" stop-color="#95A6BB"/><stop offset=".824" stop-color="#858585"/><stop offset=".989" stop-color="#A8B2BC"/><stop offset="1" stop-color="#A8B2BC"/></linearGradient><path fill="url(#c)" d="M351.331 232.877z"/><path fill="#fff" d="M351.261 232.711v-.002.002zm.002.016l.001-.006-.001.006zm.002.013v-.005.005zm.007.012l-.004-.004.004.004zm.002.014l-.001-.01.001.01zm.058.111l-.057-.107.057.107zM355.076 214.334c-1.4-1.858-3.61-3.682-6.281-4.488-.263-.08-.513-.15-.756-.214l-.07-.02-.714-.171-.013-.004c-1.655-.36-3.074-.421-5.592-.603-.942-.066-3.244-.252-4.202-.402-1.359-.211-2.72-.54-4.032-.943-.704-.218-1.612-.615-1.932-.136-.398.597.543 2.191.763 2.73 1.149 2.843.892 4.872 1.3 8.693.135 1.266 1.169 6.898 2.07 7.56h-.001l.004.002.13.056.027.003.126-.029c.334-.203 1.778-5.16 4.698-6.329l.345-.115.268-.059.053-.012c.209-.033.408-.043.601-.031h-.01c1.295.07 2.277 1.067 3.642 1.45.282.078.571.148.856.191l-.014-.001.303.032.11.002.231-.006.118-.012.25-.057.067-.018c.099-.035.192-.084.283-.143l.077-.059.189-.178.073-.084c.078-.099.152-.208.216-.34.509-1.058-.434-1.991-.192-3.02.034-.146.081-.273.134-.389l.046-.091.147-.228.049-.064c.073-.078.149-.146.234-.201l.066-.035.206-.092.112-.033.205-.037.11-.014c1.337-.08 3.261 1.178 4.033 1.669.723.463 1.294.948 2.079.914l.207-.019.124-.021c.119-.026.24-.06.369-.11 1.541-.599-.222-3.308-1.112-4.494z"/></g></svg>