<svg xmlns="http://www.w3.org/2000/svg" width="160" height="160" viewBox="69.5 69.5 160 160" enable-background="new 69.5 69.5 160 160"><circle fill="#605350" cx="149.5" cy="149.5" r="80"/><path fill="#1B2B33" d="M194.5 187c0 4.125-3.375 7.5-7.5 7.5h-75c-4.125 0-7.5-3.375-7.5-7.5v-75c0-4.125 3.375-7.5 7.5-7.5h75c4.125 0 7.5 3.375 7.5 7.5v75z"/><path fill="#263A49" d="M187 104.5h-18.75c0 10.355-8.395 18.75-18.75 18.75s-18.75-8.395-18.75-18.75h-18.75c-4.125 0-7.5 3.375-7.5 7.5v75c0 4.125 3.375 7.5 7.5 7.5h75c4.125 0 7.5-3.375 7.5-7.5v-75c0-4.125-3.375-7.5-7.5-7.5z"/><path fill="#34869D" d="M152.438 151.26c0 3.158-2.562 5.721-5.718 5.721-3.162 0-5.723-2.562-5.723-5.721 0-3.163 2.561-5.723 5.723-5.723 3.155 0 5.718 2.56 5.718 5.723"/><path fill="#D86E51" d="M158.004 145.015c0 1.657-1.342 2.996-2.996 2.996-1.65 0-2.992-1.339-2.992-2.996 0-1.653 1.342-2.996 2.992-2.996 1.654.001 2.996 1.343 2.996 2.996"/><path fill="#20323D" d="M149.5 127.75c12.82 0 23.25-10.43 23.25-23.25h-1.5c0 11.993-9.758 21.75-21.75 21.75s-21.75-9.757-21.75-21.75h-1.5c0 12.82 10.43 23.25 23.25 23.25z"/><path fill="#233742" d="M190.75 183.25h-82.5c-.826 0-1.5.675-1.5 1.5v2.25c0 2.895 2.355 5.25 5.25 5.25h75c2.895 0 5.25-2.355 5.25-5.25v-2.25c0-.825-.676-1.5-1.5-1.5z"/><path fill="#F06A29" d="M208.016 126.541c-.473-2.001-.799-1.619-.799-1.619l-3.304.038s-.335-.374-.761 1.638c-.424 2.01-.762 5.437-.762 5.437l6.514-.075c0-.001-.418-3.419-.888-5.419zM210.16 176.087l-7.993.092-.501-43.537 7.993-.092zM206.338 124.562l-.029-2.633c-.522-1.614-1.041-1.824-1.56.018l.03 2.634 1.559-.019zM208.71 176.629l.021 1.67-5.087.063-.021-1.67z"/><path fill="#231F20" d="M202.16 175.883l7.992-.092.014 1.039-7.993.094-.013-1.041zm1.678-50.854l.254-.993c.143-.554.602-1.068.602-1.068l1.699-.021s.471.505.625 1.055l.276.987-3.456.04zm-2.188 6.956l7.992-.093.012 1.04-7.992.093-.012-1.04z"/><path fill="#404041" d="M202.75 176.773l5.846-.066-.01-.786-5.846.068.01.784zm1.318-51.986l.223-.875c.127-.502.475-.771.475-.771l1.037-.012s.205.143.365.606c.161.463.245 1.024.245 1.024l-2.345.028zm-1.83 8.109l5.847-.067-.01-.785-5.847.067.01.785z"/><path fill="#58595B" d="M204.355 176.633l.681-.008-.007-.555-.682.008.008.555zm.711-53.438s-.084.225-.156.699c-.072.477-.031.767-.031.767l-.482.007s.092-.419.154-.769c.065-.349.332-.692.332-.692l.183-.012zm-1.22 9.561l.682-.008-.008-.556-.682.008.008.556z"/><path fill="#F47340" d="M205.008 122.786l.34-.004s-.07-.473-.061-.835c.008-.361.207-1.349.021-.977-.185.372-.304.843-.302 1.006l.002.81zm-.574 54.333l.51-.004.01.871-.51.006-.01-.873zm-.53-43.285l.65-.007.478 40.961-.653.008-.475-40.962zm.448-8.406s-.317 1.096-.401 2.786l-.21 3.175.763-.008s-.096-2.801-.028-4.225c.065-1.422.145-1.752.145-1.752l-.269.024z"/><g fill="#fff"><path d="M209.928 156.328l-2.088.861c-.043.021-.082.064-.082.131v.33399999999999996c0 .111.074.156.172.111l.121-.054 1.883-.817-.006-.566zM207.756 151.367c0 .783.626 1.273 1.326 1.273.445 0 .756-.242.756-.242l.045.063-.014-1.069c-.041.414-.379.74-.805.74-.453 0-.82-.367-.82-.82s.367-.819.82-.819c.422 0 .756.321.803.731l-.012-.992c-.223-.164-.49-.258-.773-.258-.512 0-.811.311-.811.311l-.117-.41c-.008-.053-.074-.083-.127-.083h-.127c-.084 0-.146.061-.146.144l.002 1.431zM209.387 149.538c.16 0 .313-.031.461-.075l-.008-.551c-.102.044-.209.078-.322.085v-2.267c0-.069-.055-.132-.131-.14l-.211-.016c-.807 0-1.404.618-1.416 1.421.011.928.756 1.543 1.627 1.543zm-.303-2.428v1.875c-.439-.03-.852-.417-.852-.936 0-.472.403-.916.852-.939zM208.064 144.369h-.164c-.082 0-.143.06-.143.143v.818h-.824c-.074 0-.143.06-.143.135l.025.238c.011.075.066.143.142.143h.8v.388c0 .082.061.143.143.143h.164c.074 0 .143-.061.143-.143v-.388h1.598l-.006-.516h-1.592v-.818c0-.083-.066-.143-.143-.143zM209.98 160.861c-.187-.074-.388-.117-.599-.117-.896 0-1.623.727-1.623 1.623s.728 1.622 1.623 1.622c.226 0 .438-.046.632-.128l-.033-3zM206.881 154.08c.174 0 .314-.141.314-.314 0-.181-.143-.32-.314-.32-.182 0-.322.141-.322.32 0 .173.14.314.322.314zM207.936 154.604c-.098-.045-.172 0-.172.112v.32499999999999996c0 .064.039.107.082.13l2.078.877-.007-.575-1.86-.814-.121-.055z"/><circle cx="207.611" cy="160.015" r=".85"/><path d="M207.76 153.629v.27c0 .074.068.142.145.142h1.996l-.006-.552h-1.99c-.077-.003-.145.066-.145.14z"/></g><path fill="#263A49" d="M97.285 134.488c-.133-9.251-2.561-9.753-2.561-9.753-6.381-2.299-11.682.589-11.682.589-4.451 2.547-3.309 9.202-3.309 9.202.745 5.525 3.798 7.492 3.798 7.492 5.085 3.487 9.543 2.575 9.543 2.575 4.063-.74 4.211-10.105 4.211-10.105z"/><path fill="#331D1D" d="M97.928 121.93l.144 1.022-.144-1.022zM97.754 120.76l.106.703-.106-.703zM98.537 139.148l-.021.129.021-.129zM98.451 139.602l-.006.017.006-.017zM98.539 139.127c.256-1.506.826-6.488-.458-16.093l.138 1.076c1.103 8.897.566 13.564.32 15.017zM98.465 139.536l-.008.037.008-.037zM98.484 139.437l-.014.064.014-.064zM87.566 121.621c.352-.055.706-.102 1.058-.139-.352.038-.706.084-1.058.139zM82.896 123.065l.37-.192-.37.192zM82.426 123.334l.299-.176-.299.176zM81.955 123.644l.217-.146-.217.146zM83.275 122.87c.634-.307 1.318-.558 2.025-.76-.708.202-1.39.452-2.025.76zM89.772 121.389c.325-.021.644-.032.958-.04-.314.006-.632.019-.958.04zM90.914 121.345c.31-.006.615-.007.908-.001-.293-.006-.598-.005-.908.001zM88.683 121.476c.335-.033.667-.061.995-.081-.328.02-.659.047-.995.081zM85.352 122.095c.693-.196 1.41-.348 2.131-.462-.721.114-1.437.265-2.131.462zM98.511 139.308l-.019.095.019-.095z"/><path fill="#F06A29" d="M89.678 121.395l.095-.006-.095.006zM87.482 121.633l.084-.012-.084.012zM90.73 121.349l.184-.004-.184.004zM88.624 121.482l.059-.007-.059.007zM83.275 122.87l-.007.003.002-.001zM97.557 119.5c.07.429.137.848.197 1.26-.061-.41-.127-.831-.197-1.26zM97.86 121.463l.067.467-.067-.467zM98.071 122.952l.01.082-.01-.082zM85.301 122.11l.051-.016-.051.016z"/><path fill="#34869D" d="M88.529 122.349c3.414-.008 6.679.621 9.689 1.762l-.138-1.076-.01-.082-.144-1.022-.067-.467-.106-.703c-.061-.412-.127-.831-.197-1.26l-4.144.009s-.35 1.655-1.591 1.835c-.293-.006-.599-.005-.908.001l-.184.004c-.314.008-.633.02-.958.04l-.095.006c-.328.021-.66.048-.995.081l-.059.007c-.352.037-.706.084-1.058.139l-.084.012c-.721.114-1.438.266-2.131.462l-.051.016c-.707.202-1.392.453-2.025.76l-.006.002c1.704-.34 3.462-.522 5.262-.526zm7.09-1.223c.449-.002.812.359.812.809 0 .448-.36.812-.808.812-.448.001-.812-.36-.813-.809.001-.448.363-.811.809-.812z"/><path fill="#F06A29" d="M98.492 139.402l-.008.034.008-.034zM83.268 122.873h-.002l.004-.001zM81.498 123.992c.146-.123.301-.237.457-.349-.156.112-.31.226-.457.349zM98.539 139.127l-.002.021.002-.021zM98.471 139.501l-.006.035.006-.035zM98.516 139.277l-.005.03.005-.03zM82.725 123.158l.171-.093-.171.093zM82.172 123.497l.254-.163-.254.163zM98.445 139.618l-.002.014.002-.014zM98.457 139.573l-.006.028.006-.028z"/><path fill="#34869D" d="M98.443 139.632l.002-.014.006-.017.006-.028.008-.037.006-.035.014-.064.008-.034.019-.095.005-.03.021-.129.002-.021c.246-1.453.783-6.12-.32-15.017-3.011-1.141-6.275-1.77-9.689-1.762-1.801.004-3.559.187-5.26.523l-.002.001-.372.192-.171.093-.299.176-.254.163-.217.146c-.156.111-.311.226-.457.349-4.344 3.637-3.869 11.974-1.509 16.448.001.002 2.553 4.836 9.999 6.65 0 0 2.481.409 2.486 2.416l4.344-.009c-.001.001-.464-2.656 1.624-9.865zm-14.911 2.387s-3.053-1.967-3.798-7.492c0 0-1.143-6.655 3.309-9.202 0 0 5.301-2.888 11.682-.589 0 0 2.428.502 2.561 9.753 0 0-.148 9.364-4.21 10.104-.001.001-4.459.913-9.544-2.574z"/><circle fill="#263A49" cx="95.622" cy="121.937" r=".811"/><path fill="#263A49" d="M79.798 164.541s-1.112 6.659 3.35 9.188c0 0 5.312 2.866 11.683.539 0 0 2.426-.514 2.521-9.765 0 0-.189-9.362-4.255-10.085 0 0-4.461-.895-9.532 2.612-.002.001-3.045 1.982-3.767 7.511z"/><path fill="#327D8E" d="M97.878 178.229l.102-.703.067-.465.139-1.041.008-.062.13-1.039.005-.042.02-.176.072-.614.021-.188.065-.621.016-.146.063-.642.004-.048c.143-1.5.236-2.858.293-4.084v-.01l.024-.562.002-.05.018-.514.003-.08.014-.479v-.084l.006-.465.003-.074.003-.453v-.063l-.002-.433v-.065l-.004-.414v-.057l-.008-.399v-.052l-.014-.387-.001-.037-.014-.383-.001-.017-.017-.373-.001-.009c-.08-1.5-.215-2.496-.309-3.039l-.004-.021-.023-.127-.005-.03-.021-.098-.005-.033-.014-.064-.008-.033-.009-.039-.005-.028-.005-.017-.004-.014c-2.117-7.199-1.666-9.856-1.666-9.856l-4.344.009c.002 2.008-2.477 2.426-2.477 2.426-7.438 1.848-9.969 6.69-9.971 6.694-2.341 4.483-2.779 12.825 1.58 16.44l.457.347.225.149.246.156.305.178.168.091.369.188.006.005.009.002c.635.303 1.315.549 2.022.75l.061.017c.691.192 1.404.341 2.12.45l.093.015c.353.054.704.099 1.053.133l.071.007c.329.031.655.057.979.077l.104.007c.324.018.643.028.953.033l.188.003c.31.005.614.005.907-.002 1.24.175 1.598 1.828 1.598 1.828l4.143-.01c.071-.43.137-.849.197-1.263zm-14.731-4.5c-4.462-2.528-3.35-9.188-3.35-9.188.722-5.529 3.766-7.51 3.766-7.51 5.071-3.506 9.532-2.612 9.532-2.612 4.065.724 4.255 10.085 4.255 10.085-.095 9.251-2.521 9.766-2.521 9.766-6.37 2.326-11.682-.541-11.682-.541zm11.781 3.333c-.001-.446.362-.811.809-.811.449-.002.812.359.813.807.001.448-.36.813-.808.813-.449.004-.814-.359-.814-.809z"/><circle fill="#263A49" cx="95.739" cy="177.062" r=".811"/></svg>